# xmcd CD database file
#
# Track frame offsets:
#	150
#	25452
#	26153
#	46671
#	71866
#	73390
#	93034
#	94257
#	116355
#	117622
#	141952
#	143269
#	165877
#	166909
#	195929
#	198116
#	225470
#	227175
#	259591
#
# Disc length: 3477 seconds
#
# Revision: 0
# Processed by: cddbd v1.5.1PL2 Copyright (c) Steve Scherf et al.
# Submitted via: Feurio! 1.68 - http://www.feurio.com
#
DISCID=fa0d9313
DTITLE=Diana Krall - Live In Paris
DYEAR=1900
DGENRE=Blues
TTITLE0=I Love Being Here With You
TTITLE1=Applause
TTITLE2=All Or Nothing
TTITLE3=All Or Nothing
TTITLE4=Applause
TTITLE5=Let's Fall In Love
TTITLE6=Applause
TTITLE7=The Look Of Love
TTITLE8=Applause
TTITLE9=Maybe You'll Be There
TTITLE10=Applause
TTITLE11=Deed I Do
TTITLE12=Applause
TTITLE13=Devil May Care
TTITLE14=Applause
TTITLE15=Cry Me A River
TTITLE16=Applause
TTITLE17=Under My Skin
TTITLE18=Applause
EXTD=
EXTT0=
EXTT1=
EXTT2=
EXTT3=
EXTT4=
EXTT5=
EXTT6=
EXTT7=
EXTT8=
EXTT9=
EXTT10=
EXTT11=
EXTT12=
EXTT13=
EXTT14=
EXTT15=
EXTT16=
EXTT17=
EXTT18=
PLAYORDER=
